<svg width="230" height="162" viewBox="0 0 230 162" fill="none" xmlns="http://www.w3.org/2000/svg">
<path d="M96.9441 44.4809C95.69 44.4828 94.4514 44.7583 93.3147 45.2884C92.1781 45.8185 91.1708 46.5902 90.3632 47.5498C89.5555 48.5095 88.967 49.6338 88.6386 50.8444C88.3102 52.055 88.2499 53.3227 88.462 54.559C88.674 55.7953 89.1532 56.9704 89.8661 58.0023C90.5791 59.0343 91.5086 59.8982 92.5898 60.5338C93.671 61.1693 94.8779 61.5612 96.1262 61.6821C97.3745 61.803 98.6341 61.65 99.8171 61.2338" stroke="url(#paint0_linear_766_978)" stroke-width="3" stroke-linecap="round" stroke-linejoin="round"/>
<path d="M89.0813 49.0937C87.362 48.2658 85.8758 47.0227 84.757 45.4766C83.6381 43.9306 82.9218 42.1302 82.6726 40.238C82.4234 38.3458 82.6493 36.4213 83.3298 34.6382C84.0102 32.8551 85.1239 31.2696 86.5703 30.0247M86.6565 29.7919C85.7142 28.3817 85.3013 26.6836 85.4906 24.9981C85.68 23.3126 86.4596 21.7484 87.6913 20.5826C88.9229 19.4167 90.5273 18.7244 92.2204 18.628C93.9134 18.5317 95.586 19.0377 96.9419 20.0563M97.6256 20.2431C97.1673 19.2691 96.9337 18.2045 96.9421 17.128C96.9505 16.0516 97.2006 14.9908 97.674 14.024C98.1474 13.0572 98.832 12.2092 99.6772 11.5427C100.522 10.8762 101.506 10.4081 102.557 10.1732C103.607 9.93824 104.697 9.94239 105.745 10.1853C106.794 10.4283 107.774 10.9038 108.614 11.5767C109.455 12.2497 110.133 13.1029 110.599 14.0732C111.065 15.0436 111.307 16.1062 111.307 17.1827V61.723C111.307 63.2472 110.702 64.709 109.624 65.7868C108.546 66.8646 107.085 67.4701 105.561 67.4701C104.037 67.4701 102.575 66.8646 101.498 65.7868C100.42 64.709 99.8149 63.2472 99.8149 61.723M111.307 24.3666C111.307 26.653 112.215 28.8457 113.831 30.4624C115.448 32.0791 117.64 32.9873 119.926 32.9873M125.672 44.4816C126.926 44.4835 128.165 44.759 129.301 45.2891C130.438 45.8192 131.445 46.5909 132.253 47.5505C133.061 48.5101 133.649 49.6345 133.978 50.8451C134.306 52.0557 134.366 53.3234 134.154 54.5597C133.942 55.796 133.463 56.9711 132.75 58.003C132.037 59.035 131.108 59.8989 130.026 60.5344C128.945 61.17 127.738 61.5619 126.49 61.6828C125.242 61.8037 123.982 61.6507 122.799 61.2345" stroke="url(#paint1_linear_766_978)" stroke-width="3" stroke-linecap="round" stroke-linejoin="round"/>
<path d="M133.536 49.0937C135.256 48.2658 136.742 47.0227 137.861 45.4766C138.979 43.9306 139.696 42.1302 139.945 40.238C140.194 38.3458 139.968 36.4213 139.288 34.6382C138.607 32.8551 137.494 31.2696 136.047 30.0247M135.961 29.7919C136.903 28.3817 137.316 26.6836 137.127 24.9981C136.937 23.3126 136.158 21.7484 134.926 20.5826C133.695 19.4167 132.09 18.7244 130.397 18.628C128.704 18.5317 127.032 19.0377 125.676 20.0563M111.311 17.1827C111.311 16.1062 111.553 15.0436 112.019 14.0732C112.485 13.1029 113.163 12.2497 114.003 11.5767C114.843 10.9038 115.824 10.4283 116.872 10.1853C117.921 9.94239 119.01 9.93824 120.061 10.1732C121.111 10.4081 122.095 10.8762 122.94 11.5427C123.785 12.2092 124.47 13.0572 124.943 14.024C125.417 14.9908 125.667 16.0516 125.675 17.128C125.684 18.2045 125.45 19.2691 124.992 20.2431M122.803 61.723C122.803 63.2472 122.197 64.709 121.12 65.7868C120.042 66.8646 118.581 67.4701 117.057 67.4701C115.533 67.4701 114.071 66.8646 112.994 65.7868C111.916 64.709 111.311 63.2472 111.311 61.723" stroke="url(#paint2_linear_766_978)" stroke-width="3" stroke-linecap="round" stroke-linejoin="round"/>
<path d="M172.658 89.9863L172.255 90.0654L111.408 102.053L111.312 102.071L111.215 102.053L50.3682 90.0654L49.9648 89.9863V21L50.5918 21.165L61.6553 24.0693C61.9221 24.1395 62.0815 24.4138 62.0117 24.6807C61.9415 24.9474 61.6682 25.1069 61.4014 25.0371L50.9648 22.2959V89.1641L110.812 100.953V74.5146H111.812V100.953L171.658 89.1641V22.2959L161.223 25.0371C160.956 25.1072 160.682 24.9476 160.611 24.6807C160.542 24.4137 160.702 24.1394 160.969 24.0693L172.031 21.165L172.658 21V89.9863Z" fill="url(#paint3_linear_766_978)"/>
<path d="M172.658 89.9863L172.947 91.4583L174.158 91.2207V89.9863H172.658ZM172.255 90.0654L171.966 88.5935L171.965 88.5937L172.255 90.0654ZM111.408 102.053L111.691 103.526L111.698 103.524L111.408 102.053ZM111.312 102.071L111.029 103.544L111.312 103.599L111.594 103.544L111.312 102.071ZM111.215 102.053L110.925 103.524L110.932 103.526L111.215 102.053ZM50.3682 90.0654L50.6581 88.5937L50.6569 88.5935L50.3682 90.0654ZM49.9648 89.9863H48.4648V91.2207L49.6762 91.4583L49.9648 89.9863ZM49.9648 21L50.3467 19.5494L48.4648 19.054V21H49.9648ZM50.5918 21.165L50.2099 22.6156L50.2109 22.6159L50.5918 21.165ZM61.6553 24.0693L62.037 22.6187L62.0361 22.6185L61.6553 24.0693ZM62.0117 24.6807L63.4623 25.0625L63.4629 25.0604L62.0117 24.6807ZM61.4014 25.0371L61.0203 26.4879L61.0218 26.4883L61.4014 25.0371ZM50.9648 22.2959L51.3459 20.8451L49.4648 20.351V22.2959H50.9648ZM50.9648 89.1641H49.4648V90.3974L50.6749 90.6358L50.9648 89.1641ZM110.812 100.953L110.522 102.425L112.312 102.777V100.953H110.812ZM110.812 74.5146V73.0146H109.312V74.5146H110.812ZM111.812 74.5146H113.312V73.0146H111.812V74.5146ZM111.812 100.953H110.312V102.777L112.101 102.425L111.812 100.953ZM171.658 89.1641L171.948 90.6358L173.158 90.3974V89.1641H171.658ZM171.658 22.2959H173.158V20.351L171.277 20.8451L171.658 22.2959ZM161.223 25.0371L161.604 26.4879L161.604 26.4879L161.223 25.0371ZM160.611 24.6807L159.16 25.0602L159.161 25.0623L160.611 24.6807ZM160.969 24.0693L160.588 22.6185L160.588 22.6185L160.969 24.0693ZM172.031 21.165L172.412 22.6159L172.413 22.6156L172.031 21.165ZM172.658 21H174.158V19.054L172.276 19.5494L172.658 21ZM172.658 89.9863L172.37 88.5144L171.966 88.5935L172.255 90.0654L172.544 91.5374L172.947 91.4583L172.658 89.9863ZM172.255 90.0654L171.965 88.5937L111.118 100.581L111.408 102.053L111.698 103.524L172.545 91.5371L172.255 90.0654ZM111.408 102.053L111.125 100.58L111.029 100.598L111.312 102.071L111.594 103.544L111.691 103.526L111.408 102.053ZM111.312 102.071L111.594 100.598L111.498 100.58L111.215 102.053L110.932 103.526L111.029 103.544L111.312 102.071ZM111.215 102.053L111.505 100.581L50.6581 88.5937L50.3682 90.0654L50.0782 91.5371L110.925 103.524L111.215 102.053ZM50.3682 90.0654L50.6569 88.5935L50.2535 88.5144L49.9648 89.9863L49.6762 91.4583L50.0795 91.5374L50.3682 90.0654ZM49.9648 89.9863H51.4648V21H49.9648H48.4648V89.9863H49.9648ZM49.9648 21L49.583 22.4506L50.2099 22.6156L50.5918 21.165L50.9736 19.7145L50.3467 19.5494L49.9648 21ZM50.5918 21.165L50.2109 22.6159L61.2744 25.5202L61.6553 24.0693L62.0361 22.6185L50.9727 19.7142L50.5918 21.165ZM61.6553 24.0693L61.2735 25.5199C60.7366 25.3786 60.4218 24.8313 60.5606 24.3009L62.0117 24.6807L63.4629 25.0604C63.7413 23.9963 63.1075 22.9005 62.037 22.6187L61.6553 24.0693ZM62.0117 24.6807L60.5611 24.2988C60.7018 23.7645 61.2481 23.4466 61.7809 23.5859L61.4014 25.0371L61.0218 26.4883C62.0883 26.7673 63.1812 26.1304 63.4623 25.0625L62.0117 24.6807ZM61.4014 25.0371L61.7824 23.5863L51.3459 20.8451L50.9648 22.2959L50.5838 23.7467L61.0203 26.4879L61.4014 25.0371ZM50.9648 22.2959H49.4648V89.1641H50.9648H52.4648V22.2959H50.9648ZM50.9648 89.1641L50.6749 90.6358L110.522 102.425L110.812 100.953L111.101 99.4814L51.2548 87.6923L50.9648 89.1641ZM110.812 100.953H112.312V74.5146H110.812H109.312V100.953H110.812ZM110.812 74.5146V76.0146H111.812V74.5146V73.0146H110.812V74.5146ZM111.812 74.5146H110.312V100.953H111.812H113.312V74.5146H111.812ZM111.812 100.953L112.101 102.425L171.948 90.6358L171.658 89.1641L171.368 87.6923L111.522 99.4814L111.812 100.953ZM171.658 89.1641H173.158V22.2959H171.658H170.158V89.1641H171.658ZM171.658 22.2959L171.277 20.8451L160.842 23.5863L161.223 25.0371L161.604 26.4879L172.039 23.7467L171.658 22.2959ZM161.223 25.0371L160.842 23.5863C161.374 23.4466 161.921 23.7632 162.062 24.299L160.611 24.6807L159.161 25.0623C159.442 26.132 160.537 26.7678 161.604 26.4879L161.223 25.0371ZM160.611 24.6807L162.063 24.3012C162.202 24.8349 161.884 25.3799 161.35 25.5201L160.969 24.0693L160.588 22.6185C159.52 22.8989 158.881 23.9926 159.16 25.0602L160.611 24.6807ZM160.969 24.0693L161.35 25.5202L172.412 22.6159L172.031 21.165L171.65 19.7142L160.588 22.6185L160.969 24.0693ZM172.031 21.165L172.413 22.6156L173.04 22.4506L172.658 21L172.276 19.5494L171.649 19.7145L172.031 21.165ZM172.658 21H171.158V89.9863H172.658H174.158V21H172.658Z" fill="url(#paint4_linear_766_978)"/>
<path d="M161.722 82.0049L161.409 82.1309L111.784 102.109L111.598 102.185L111.411 102.109L61.7861 82.1309L61.4727 82.0049V13L62.1592 13.2764L80.9219 20.8301V21.9072L62.4727 14.4805V81.3291L111.597 101.106L160.722 81.3291V14.4805L141.574 22.1885V21.1104L161.035 13.2764L161.722 13V82.0049Z" fill="url(#paint5_linear_766_978)"/>
<path d="M161.722 82.0049L162.283 83.3961L163.222 83.0175V82.0049H161.722ZM161.409 82.1309L161.969 83.5223L161.97 83.5221L161.409 82.1309ZM111.784 102.109L111.224 100.718L111.223 100.718L111.784 102.109ZM111.598 102.185L111.037 103.576L111.598 103.802L112.159 103.576L111.598 102.185ZM111.411 102.109L111.972 100.718L111.971 100.718L111.411 102.109ZM61.7861 82.1309L62.3463 80.7394L62.3455 80.739L61.7861 82.1309ZM61.4727 82.0049H59.9727V83.0187L60.9133 83.3967L61.4727 82.0049ZM61.4727 13L62.0328 11.6085L59.9727 10.7792V13H61.4727ZM62.1592 13.2764L62.7194 11.8849L62.7193 11.8849L62.1592 13.2764ZM80.9219 20.8301H82.4219V19.817L81.4821 19.4386L80.9219 20.8301ZM80.9219 21.9072L80.3617 23.2987L82.4219 24.128V21.9072H80.9219ZM62.4727 14.4805L63.0328 13.089L60.9727 12.2597V14.4805H62.4727ZM62.4727 81.3291H60.9727V82.3422L61.9125 82.7206L62.4727 81.3291ZM111.597 101.106L111.036 102.498L111.597 102.723L112.157 102.498L111.597 101.106ZM160.722 81.3291L161.282 82.7206L162.222 82.3422V81.3291H160.722ZM160.722 14.4805H162.222V12.2596L160.162 13.089L160.722 14.4805ZM141.574 22.1885H140.074V24.4093L142.134 23.58L141.574 22.1885ZM141.574 21.1104L141.014 19.7189L140.074 20.0972V21.1104H141.574ZM161.035 13.2764L161.595 14.6679L161.595 14.6679L161.035 13.2764ZM161.722 13H163.222V10.7792L161.162 11.6085L161.722 13ZM161.722 82.0049L161.161 80.6137L160.848 80.7396L161.409 82.1309L161.97 83.5221L162.283 83.3961L161.722 82.0049ZM161.409 82.1309L160.849 80.7394L111.224 100.718L111.784 102.109L112.344 103.501L161.969 83.5223L161.409 82.1309ZM111.784 102.109L111.223 100.718L111.037 100.793L111.598 102.185L112.159 103.576L112.345 103.501L111.784 102.109ZM111.598 102.185L112.159 100.793L111.972 100.718L111.411 102.109L110.85 103.501L111.037 103.576L111.598 102.185ZM111.411 102.109L111.971 100.718L62.3463 80.7394L61.7861 82.1309L61.2259 83.5223L110.851 103.501L111.411 102.109ZM61.7861 82.1309L62.3455 80.739L62.032 80.6131L61.4727 82.0049L60.9133 83.3967L61.2268 83.5227L61.7861 82.1309ZM61.4727 82.0049H62.9727V13H61.4727H59.9727V82.0049H61.4727ZM61.4727 13L60.9125 14.3915L61.599 14.6679L62.1592 13.2764L62.7193 11.8849L62.0328 11.6085L61.4727 13ZM62.1592 13.2764L61.599 14.6678L80.3617 22.2215L80.9219 20.8301L81.4821 19.4386L62.7194 11.8849L62.1592 13.2764ZM80.9219 20.8301H79.4219V21.9072H80.9219H82.4219V20.8301H80.9219ZM80.9219 21.9072L81.482 20.5157L63.0328 13.089L62.4727 14.4805L61.9125 15.872L80.3617 23.2987L80.9219 21.9072ZM62.4727 14.4805H60.9727V81.3291H62.4727H63.9727V14.4805H62.4727ZM62.4727 81.3291L61.9125 82.7206L111.036 102.498L111.597 101.106L112.157 99.715L63.0329 79.9376L62.4727 81.3291ZM111.597 101.106L112.157 102.498L161.282 82.7206L160.722 81.3291L160.161 79.9376L111.036 99.715L111.597 101.106ZM160.722 81.3291H162.222V14.4805H160.722H159.222V81.3291H160.722ZM160.722 14.4805L160.162 13.089L141.014 20.797L141.574 22.1885L142.134 23.58L161.282 15.872L160.722 14.4805ZM141.574 22.1885H143.074V21.1104H141.574H140.074V22.1885H141.574ZM141.574 21.1104L142.134 22.5018L161.595 14.6679L161.035 13.2764L160.475 11.8849L141.014 19.7189L141.574 21.1104ZM161.035 13.2764L161.595 14.6679L162.282 14.3915L161.722 13L161.162 11.6085L160.475 11.8849L161.035 13.2764ZM161.722 13H160.222V82.0049H161.722H163.222V13H161.722Z" fill="url(#paint6_linear_766_978)"/>
<path d="M44.1875 156.094V161H20.0938V156.094H44.1875ZM21.3125 115.5V161H15.2812V115.5H21.3125ZM41 135.062V139.969H20.0938V135.062H41ZM43.875 115.5V120.438H20.0938V115.5H43.875ZM63.9688 161H54.4688L54.5312 156.094H63.9688C67.2188 156.094 69.9271 155.417 72.0938 154.062C74.2604 152.688 75.8854 150.771 76.9688 148.312C78.0729 145.833 78.625 142.938 78.625 139.625V136.844C78.625 134.24 78.3125 131.927 77.6875 129.906C77.0625 127.865 76.1458 126.146 74.9375 124.75C73.7292 123.333 72.25 122.26 70.5 121.531C68.7708 120.802 66.7812 120.438 64.5312 120.438H54.2812V115.5H64.5312C67.5104 115.5 70.2292 116 72.6875 117C75.1458 117.979 77.2604 119.406 79.0312 121.281C80.8229 123.135 82.1979 125.385 83.1562 128.031C84.1146 130.656 84.5938 133.615 84.5938 136.906V139.625C84.5938 142.917 84.1146 145.885 83.1562 148.531C82.1979 151.156 80.8125 153.396 79 155.25C77.2083 157.104 75.0417 158.531 72.5 159.531C69.9792 160.51 67.1354 161 63.9688 161ZM57.6875 115.5V161H51.6562V115.5H57.6875ZM119.688 115.5H125.688V146.281C125.688 149.698 124.927 152.542 123.406 154.812C121.885 157.083 119.865 158.792 117.344 159.938C114.844 161.062 112.125 161.625 109.188 161.625C106.104 161.625 103.312 161.062 100.812 159.938C98.3333 158.792 96.3646 157.083 94.9062 154.812C93.4688 152.542 92.75 149.698 92.75 146.281V115.5H98.7188V146.281C98.7188 148.656 99.1562 150.615 100.031 152.156C100.906 153.698 102.125 154.844 103.688 155.594C105.271 156.344 107.104 156.719 109.188 156.719C111.292 156.719 113.125 156.344 114.688 155.594C116.271 154.844 117.5 153.698 118.375 152.156C119.25 150.615 119.688 148.656 119.688 146.281V115.5ZM168.781 138.344V155C168.219 155.833 167.323 156.771 166.094 157.812C164.865 158.833 163.167 159.729 161 160.5C158.854 161.25 156.083 161.625 152.688 161.625C149.917 161.625 147.365 161.146 145.031 160.188C142.719 159.208 140.708 157.792 139 155.938C137.312 154.062 136 151.792 135.062 149.125C134.146 146.438 133.688 143.396 133.688 140V136.469C133.688 133.073 134.083 130.042 134.875 127.375C135.688 124.708 136.875 122.448 138.438 120.594C140 118.719 141.917 117.302 144.188 116.344C146.458 115.365 149.062 114.875 152 114.875C155.479 114.875 158.385 115.479 160.719 116.688C163.073 117.875 164.906 119.521 166.219 121.625C167.552 123.729 168.406 126.125 168.781 128.812H162.75C162.479 127.167 161.938 125.667 161.125 124.312C160.333 122.958 159.198 121.875 157.719 121.062C156.24 120.229 154.333 119.812 152 119.812C149.896 119.812 148.073 120.198 146.531 120.969C144.99 121.74 143.719 122.844 142.719 124.281C141.719 125.719 140.969 127.458 140.469 129.5C139.99 131.542 139.75 133.844 139.75 136.406V140C139.75 142.625 140.052 144.969 140.656 147.031C141.281 149.094 142.167 150.854 143.312 152.312C144.458 153.75 145.823 154.844 147.406 155.594C149.01 156.344 150.781 156.719 152.719 156.719C154.865 156.719 156.604 156.542 157.938 156.188C159.271 155.812 160.312 155.375 161.062 154.875C161.812 154.354 162.385 153.865 162.781 153.406V143.219H152.25V138.344H168.781ZM213.812 136.812V139.688C213.812 143.104 213.385 146.167 212.531 148.875C211.677 151.583 210.448 153.885 208.844 155.781C207.24 157.677 205.312 159.125 203.062 160.125C200.833 161.125 198.333 161.625 195.562 161.625C192.875 161.625 190.406 161.125 188.156 160.125C185.927 159.125 183.99 157.677 182.344 155.781C180.719 153.885 179.458 151.583 178.562 148.875C177.667 146.167 177.219 143.104 177.219 139.688V136.812C177.219 133.396 177.656 130.344 178.531 127.656C179.427 124.948 180.688 122.646 182.312 120.75C183.938 118.833 185.865 117.375 188.094 116.375C190.344 115.375 192.812 114.875 195.5 114.875C198.271 114.875 200.771 115.375 203 116.375C205.25 117.375 207.177 118.833 208.781 120.75C210.406 122.646 211.646 124.948 212.5 127.656C213.375 130.344 213.812 133.396 213.812 136.812ZM207.844 139.688V136.75C207.844 134.042 207.562 131.646 207 129.562C206.458 127.479 205.656 125.729 204.594 124.312C203.531 122.896 202.229 121.823 200.688 121.094C199.167 120.365 197.438 120 195.5 120C193.625 120 191.927 120.365 190.406 121.094C188.906 121.823 187.615 122.896 186.531 124.312C185.469 125.729 184.646 127.479 184.062 129.562C183.479 131.646 183.188 134.042 183.188 136.75V139.688C183.188 142.417 183.479 144.833 184.062 146.938C184.646 149.021 185.479 150.781 186.562 152.219C187.667 153.635 188.969 154.708 190.469 155.438C191.99 156.167 193.688 156.531 195.562 156.531C197.521 156.531 199.26 156.167 200.781 155.438C202.302 154.708 203.583 153.635 204.625 152.219C205.688 150.781 206.49 149.021 207.031 146.938C207.573 144.833 207.844 142.417 207.844 139.688Z" fill="url(#paint7_linear_766_978)"/>
<defs>
<linearGradient id="paint0_linear_766_978" x1="94.0775" y1="44.4809" x2="94.0775" y2="61.7223" gradientUnits="userSpaceOnUse">
<stop stop-color="#6A3FA8"/>
<stop offset="0.9999" stop-color="#333333"/>
</linearGradient>
<linearGradient id="paint1_linear_766_978" x1="108.426" y1="10" x2="108.426" y2="67.4701" gradientUnits="userSpaceOnUse">
<stop stop-color="#6A3FA8"/>
<stop offset="0.9999" stop-color="#333333"/>
</linearGradient>
<linearGradient id="paint2_linear_766_978" x1="125.677" y1="10" x2="125.677" y2="67.4701" gradientUnits="userSpaceOnUse">
<stop stop-color="#6A3FA8"/>
<stop offset="0.9999" stop-color="#333333"/>
</linearGradient>
<linearGradient id="paint3_linear_766_978" x1="111.312" y1="21" x2="111.312" y2="102.071" gradientUnits="userSpaceOnUse">
<stop stop-color="#6A3FA8"/>
<stop offset="0.9999" stop-color="#333333"/>
</linearGradient>
<linearGradient id="paint4_linear_766_978" x1="111.312" y1="21" x2="111.312" y2="102.071" gradientUnits="userSpaceOnUse">
<stop stop-color="#6A3FA8"/>
<stop offset="0.480769" stop-color="#333333"/>
</linearGradient>
<linearGradient id="paint5_linear_766_978" x1="111.597" y1="13" x2="111.597" y2="102.185" gradientUnits="userSpaceOnUse">
<stop stop-color="#6A3FA8"/>
<stop offset="0.9999" stop-color="#333333"/>
</linearGradient>
<linearGradient id="paint6_linear_766_978" x1="111.597" y1="13" x2="111.597" y2="102.185" gradientUnits="userSpaceOnUse">
<stop stop-color="#6A3FA8"/>
<stop offset="0.480769" stop-color="#333333"/>
</linearGradient>
<linearGradient id="paint7_linear_766_978" x1="10" y1="124" x2="222" y2="124" gradientUnits="userSpaceOnUse">
<stop offset="0.442308" stop-color="#6A3FA8"/>
<stop offset="0.802885" stop-color="#333333"/>
</linearGradient>
</defs>
</svg>
